<?xml version="1.0" encoding="UTF-8"?>
<svg version="1.1" xmlns="http://www.w3.org/2000/svg" width="96" height="96">
<path d="M0 0 C8.80288754 6.34043826 15.4186507 14.72648904 17.58203125 25.4921875 C18.92007691 37.90936834 17.85729499 48.88109459 10.39453125 59.2421875 C3.58210875 67.3274193 -4.72289951 73.55522767 -15.48876953 74.71533203 C-28.40007937 75.61089799 -39.16843729 74.04490094 -49.3515625 65.46484375 C-57.86959925 57.33325857 -62.42046403 48.68416257 -62.88867188 36.85693359 C-63.04371176 24.34263074 -60.22647828 14.71931927 -51.41796875 5.4921875 C-37.63784493 -7.66275112 -16.31305228 -10.17259803 0 0 Z " fill="#4C53B9" transform="translate(70.41796875,13.5078125)"/>
<path d="M0 0 C3.53361959 3.18436649 6.1146622 6.62394071 8 11 C8 11.99 8 12.98 8 14 C6.05859375 15.53515625 6.05859375 15.53515625 3.4375 17.0625 C2.59058594 17.56910156 1.74367187 18.07570313 0.87109375 18.59765625 C-9.16297529 23.49865052 -22.61466049 23.93454072 -33.1875 20.3125 C-37.5872647 18.41815687 -41.26664929 15.98668057 -45 13 C-41.68573871 4.93049425 -36.31726916 -1.38488344 -28.1875 -5 C-17.79204298 -8.10834458 -8.86379184 -5.99223797 0 0 Z " fill="#9198F1" transform="translate(66,66)"/>
<path d="M0 0 C4.42484878 2.21242439 7.19476657 4.94799616 10 9 C11.66666583 13.9999975 11.57623861 18.28654087 9.5 23.125 C7.00558795 27.62369402 3.77639886 30.14861708 -1 32 C-5.16035287 32.95114525 -8.39182877 32.79568054 -12.2421875 30.890625 C-16.92213973 27.70208612 -19.5965071 24.61397162 -21 19 C-21.35452055 13.50493141 -20.73497001 9.32179087 -17.1875 5 C-12.23816578 -0.29286128 -6.987683 -0.8955733 0 0 Z " fill="#949BF4" transform="translate(53,22)"/>
<path d="M0 0 C0.66 0.33 1.32 0.66 2 1 C2.50356834 7.82614857 2.29594996 13.41650307 -2 19 C-4.24018108 20.97155123 -6.44208589 22.42589901 -9 24 C-8.01 24.99 -7.02 25.98 -6 27 C-10.95 26.67 -15.9 26.34 -21 26 C-21 24.68 -21 23.36 -21 22 C-22.65 22 -24.3 22 -26 22 C-26.33 21.34 -26.66 20.68 -27 20 C-27.99 19.67 -28.98 19.34 -30 19 C-30 17.02 -30 15.04 -30 13 C-29.18208984 13.6496875 -29.18208984 13.6496875 -28.34765625 14.3125 C-23.69249688 17.75015615 -20.10283425 19.96994257 -14.20703125 19.515625 C-10.15993695 18.57010916 -7.03311009 16.83328166 -4 14 C-1.38635624 9.4472012 -0.52999802 5.19398059 0 0 Z " fill="#4148A5" transform="translate(64,34)"/>
<path d="M0 0 C0.48726562 0.433125 0.97453125 0.86625 1.4765625 1.3125 C8.40775725 6.75663842 14.42370077 6.6587769 23 6 C20.38521048 8.56761548 19.05471424 8.9956345 15.328125 9.29296875 C13.96843965 9.27316751 12.6089066 9.23759202 11.25 9.1875 C10.55261719 9.17396484 9.85523438 9.16042969 9.13671875 9.14648438 C7.42414459 9.1112945 5.71197059 9.05749155 4 9 C3.67 8.34 3.34 7.68 3 7 C2.01 6.67 1.02 6.34 0 6 C0 4.02 0 2.04 0 0 Z " fill="#3A4093" transform="translate(34,47)"/>
<path d="M0 0 C2.97 1.98 2.97 1.98 6 4 C5.67 4.99 5.34 5.98 5 7 C6.32 7.33 7.64 7.66 9 8 C9 8.33 9 8.66 9 9 C7.35 9 5.7 9 4 9 C3.67 8.34 3.34 7.68 3 7 C2.01 6.67 1.02 6.34 0 6 C0 4.02 0 2.04 0 0 Z " fill="#4249A1" transform="translate(34,47)"/>
<path d="M0 0 C0.66 0.33 1.32 0.66 2 1 C2.05395478 2.62463842 2.09277195 4.24978541 2.125 5.875 C2.14820312 6.77992187 2.17140625 7.68484375 2.1953125 8.6171875 C2 11 2 11 0 13 C-0.99 12.67 -1.98 12.34 -3 12 C-2.690625 11.319375 -2.38125 10.63875 -2.0625 9.9375 C-0.86629351 6.63034088 -0.40994603 3.48454122 0 0 Z " fill="#464DA8" transform="translate(64,34)"/>
<path d="M0 0 C0.33 0 0.66 0 1 0 C1.22151549 1.79008467 1.42682213 3.58218162 1.625 5.375 C1.74101563 6.37273438 1.85703125 7.37046875 1.9765625 8.3984375 C1.98429687 9.25695313 1.99203125 10.11546875 2 11 C1.34 11.66 0.68 12.32 0 13 C-1.29721449 9.10835652 -1.13033993 6.10570774 -1 2 C-0.67 1.34 -0.34 0.68 0 0 Z " fill="#4A51AB" transform="translate(31,34)"/>
</svg>
